<?xml version="1.0" encoding="UTF-8"?>
<svg xmlns="http://www.w3.org/2000/svg" xmlns:xlink="http://www.w3.org/1999/xlink" width="15px" height="px" viewBox="0 0 15 15" version="1.1">
<g id="surface1">
<path style=" stroke:none;fill-rule:nonzero;fill:rgb(0%,0%,0%);fill-opacity:1;" d="M 13.4375 0 L 1.5625 0 C 0.699219 0 0 0.703125 0 1.5625 L 0 13.4375 C 0 14.296875 0.699219 15 1.5625 15 L 13.4375 15 C 14.300781 15 15 14.296875 15 13.4375 L 15 1.5625 C 15 0.703125 14.300781 0 13.4375 0 Z M 14.375 13.4375 C 14.375 13.953125 13.953125 14.375 13.4375 14.375 L 1.5625 14.375 C 1.046875 14.375 0.625 13.953125 0.625 13.4375 L 0.625 3.125 L 14.375 3.125 Z M 14.375 2.5 L 0.625 2.5 L 0.625 1.5625 C 0.625 1.046875 1.046875 0.625 1.5625 0.625 L 13.4375 0.625 C 13.953125 0.625 14.375 1.046875 14.375 1.5625 Z M 14.375 2.5 "/>
<path style=" stroke:none;fill-rule:nonzero;fill:rgb(0%,0%,0%);fill-opacity:1;" d="M 1.875 1.5625 C 1.875 1.734375 1.734375 1.875 1.5625 1.875 C 1.390625 1.875 1.25 1.734375 1.25 1.5625 C 1.25 1.390625 1.390625 1.25 1.5625 1.25 C 1.734375 1.25 1.875 1.390625 1.875 1.5625 Z M 1.875 1.5625 "/>
<path style=" stroke:none;fill-rule:nonzero;fill:rgb(0%,0%,0%);fill-opacity:1;" d="M 3.125 1.5625 C 3.125 1.734375 2.984375 1.875 2.8125 1.875 C 2.640625 1.875 2.5 1.734375 2.5 1.5625 C 2.5 1.390625 2.640625 1.25 2.8125 1.25 C 2.984375 1.25 3.125 1.390625 3.125 1.5625 Z M 3.125 1.5625 "/>
<path style=" stroke:none;fill-rule:nonzero;fill:rgb(0%,0%,0%);fill-opacity:1;" d="M 4.375 1.5625 C 4.375 1.734375 4.234375 1.875 4.0625 1.875 C 3.890625 1.875 3.75 1.734375 3.75 1.5625 C 3.75 1.390625 3.890625 1.25 4.0625 1.25 C 4.234375 1.25 4.375 1.390625 4.375 1.5625 Z M 4.375 1.5625 "/>
<path style=" stroke:none;fill-rule:nonzero;fill:rgb(0%,0%,0%);fill-opacity:1;" d="M 4.90625 8.21875 L 3.03125 6.34375 C 2.910156 6.21875 2.714844 6.21875 2.589844 6.34375 C 2.46875 6.464844 2.46875 6.664062 2.589844 6.785156 L 4.246094 8.4375 L 2.589844 10.09375 C 2.46875 10.214844 2.46875 10.410156 2.589844 10.535156 C 2.652344 10.59375 2.734375 10.625 2.8125 10.625 C 2.890625 10.625 2.972656 10.59375 3.03125 10.535156 L 4.90625 8.660156 C 5.03125 8.539062 5.03125 8.339844 4.90625 8.21875 Z M 4.90625 8.21875 "/>
<path style=" stroke:none;fill-rule:nonzero;fill:rgb(0%,0%,0%);fill-opacity:1;" d="M 9.0625 9.375 L 5.9375 9.375 C 5.765625 9.375 5.625 9.515625 5.625 9.6875 C 5.625 9.859375 5.765625 10 5.9375 10 L 9.0625 10 C 9.234375 10 9.375 9.859375 9.375 9.6875 C 9.375 9.515625 9.234375 9.375 9.0625 9.375 Z M 9.0625 9.375 "/>
</g>
</svg>
