<?xml version="1.0" encoding="UTF-8"?>
<svg xmlns="http://www.w3.org/2000/svg" xmlns:xlink="http://www.w3.org/1999/xlink" width="15px" height="px" viewBox="0 0 15 15" version="1.1">
<g id="surface1">
<path style=" stroke:none;fill-rule:evenodd;fill:rgb(0%,0%,0%);fill-opacity:1;" d="M 7.5 0 C 11.640625 0 15 3.441406 15 7.691406 C 15 11.085938 12.851562 13.96875 9.875 14.984375 C 9.496094 15.0625 9.359375 14.820312 9.359375 14.617188 C 9.359375 14.363281 9.367188 13.535156 9.367188 12.507812 C 9.367188 11.789062 9.128906 11.320312 8.859375 11.082031 C 10.53125 10.890625 12.285156 10.242188 12.285156 7.289062 C 12.285156 6.449219 11.992188 5.761719 11.511719 5.222656 C 11.589844 5.03125 11.847656 4.246094 11.4375 3.1875 C 11.4375 3.1875 10.808594 2.984375 9.378906 3.976562 C 8.78125 3.808594 8.136719 3.722656 7.5 3.71875 C 6.863281 3.722656 6.222656 3.808594 5.621094 3.976562 C 4.191406 2.984375 3.558594 3.1875 3.558594 3.1875 C 3.152344 4.246094 3.410156 5.03125 3.488281 5.222656 C 3.007812 5.761719 2.714844 6.449219 2.714844 7.289062 C 2.714844 10.234375 4.464844 10.894531 6.132812 11.089844 C 5.917969 11.28125 5.722656 11.621094 5.65625 12.117188 C 5.226562 12.3125 4.140625 12.652344 3.472656 11.476562 C 3.472656 11.476562 3.074219 10.738281 2.324219 10.683594 C 2.324219 10.683594 1.589844 10.675781 2.273438 11.152344 C 2.273438 11.152344 2.761719 11.390625 3.105469 12.277344 C 3.105469 12.277344 3.542969 13.648438 5.632812 13.183594 C 5.632812 13.828125 5.640625 14.433594 5.640625 14.617188 C 5.640625 14.820312 5.503906 15.058594 5.128906 14.988281 C 2.148438 13.96875 0 11.085938 0 7.691406 C 0 3.441406 3.359375 0 7.5 0 "/>
</g>
</svg>
