<?xml version="1.0" encoding="UTF-8"?>
<svg xmlns="http://www.w3.org/2000/svg" xmlns:xlink="http://www.w3.org/1999/xlink" width="15px" height="px" viewBox="0 0 15 15" version="1.1">
<g id="surface1">
<path style=" stroke:none;fill-rule:evenodd;fill:rgb(0%,0%,0%);fill-opacity:1;" d="M 3.75 1.25 C 2.371094 1.25 1.25 2.371094 1.25 3.75 L 1.25 11.25 C 1.25 12.628906 2.371094 13.75 3.75 13.75 L 11.25 13.75 C 12.628906 13.75 13.75 12.628906 13.75 11.25 L 13.75 3.75 C 13.75 2.371094 12.628906 1.25 11.25 1.25 Z M 2.5 3.75 C 2.5 3.058594 3.058594 2.5 3.75 2.5 L 11.25 2.5 C 11.941406 2.5 12.5 3.058594 12.5 3.75 L 12.5 11.25 C 12.5 11.941406 11.941406 12.5 11.25 12.5 L 3.75 12.5 C 3.058594 12.5 2.5 11.941406 2.5 11.25 Z M 5.625 6.875 C 5.625 6.53125 5.34375 6.25 5 6.25 C 4.65625 6.25 4.375 6.53125 4.375 6.875 L 4.375 10.625 C 4.375 10.96875 4.65625 11.25 5 11.25 C 5.34375 11.25 5.625 10.96875 5.625 10.625 Z M 5.9375 4.6875 C 5.9375 5.207031 5.519531 5.625 5 5.625 C 4.480469 5.625 4.0625 5.207031 4.0625 4.6875 C 4.0625 4.167969 4.480469 3.75 5 3.75 C 5.519531 3.75 5.9375 4.167969 5.9375 4.6875 Z M 7.5 6.25 C 7.710938 6.25 7.898438 6.355469 8.011719 6.515625 C 8.332031 6.34375 8.691406 6.25 9.0625 6.25 C 10.414062 6.25 11.25 7.453125 11.25 8.480469 L 11.25 10.625 C 11.25 10.96875 10.96875 11.25 10.625 11.25 C 10.28125 11.25 10 10.96875 10 10.625 L 10 8.480469 C 10 8.003906 9.585938 7.5 9.0625 7.5 C 8.734375 7.5 8.375 7.679688 8.125 8.101562 L 8.125 10.625 C 8.125 10.96875 7.84375 11.25 7.5 11.25 C 7.15625 11.25 6.875 10.96875 6.875 10.625 L 6.875 6.875 C 6.875 6.53125 7.15625 6.25 7.5 6.25 Z M 7.5 6.25 "/>
</g>
</svg>
